<svg 
          width="25" 
          height="22" fill="none" 
          xmlns="http://www.w3.org/2000/svg">
          <path d="M 24.75 0 L 0.25 0 C 0.11249999701976776 0 0 0.11249999701976776 0 0.25 L 0 2.25 C 0 2.3875000029802322 0.11249999701976776 2.5 0.25 2.5 L 24.75 2.5 C 24.887500002980232 2.5 25 2.3875000029802322 25 2.25 L 25 0.25 C 25 0.11249999701976776 24.887500002980232 0 24.75 0 Z M 24.75 19.5 L 0.25 19.5 C 0.11249999701976776 19.5 0 19.612499997019768 0 19.75 L 0 21.75 C 0 21.887500002980232 0.11249999701976776 22 0.25 22 L 24.75 22 C 24.887500002980232 22 25 21.887500002980232 25 21.75 L 25 19.75 C 25 19.612499997019768 24.887500002980232 19.5 24.75 19.5 Z M 24.75 9.75 L 0.25 9.75 C 0.11249999701976776 9.75 0 9.862499997019768 0 10 L 0 12 C 0 12.137500002980232 0.11249999701976776 12.25 0.25 12.25 L 24.75 12.25 C 24.887500002980232 12.25 25 12.137500002980232 25 12 L 25 10 C 25 9.862499997019768 24.887500002980232 9.75 24.75 9.75 Z" fill="rgb(0,0,0)"/>
        </svg>