<svg 
          width="42" 
          height="38" fill="none" 
          xmlns="http://www.w3.org/2000/svg">
          <path d="M 37.14666446419649 2.398750427441719 C 36.67999779623608 0.9975005296560433 35.37333379235378 0 33.83333374733149 0 L 8.166666252668513 0 C 6.626666207646214 0 5.343333205511404 0.9975005296560433 4.853333207063897 2.398750427441719 L 0.2566664024840954 15.865001189403044 C 0.09333307451980061 16.363751163849464 0 16.886250578440155 0 17.432500594701523 L 0 34.4375 C 0 36.40874993495452 1.5633333172909047 38 3.499999922375346 38 C 5.436666527459788 38 6.999999844750692 36.40874993495452 6.999999844750692 34.4375 L 6.999999844750692 33.25 L 34.99999875800554 33.25 L 34.99999875800554 34.4375 C 34.99999875800554 36.38499997212337 36.56333091092664 38 38.49999751601108 38 C 40.41333073238993 38 42 36.40874993495452 42 34.4375 L 42 17.432500594701523 C 42 16.91000059934763 41.90666523714398 16.363751163849464 41.74333190917969 15.865001189403044 L 37.14666446419649 2.398750427441719 Z M 8.166666252668513 26.125 C 6.229999647584071 26.125 4.666666563167128 24.53374993495452 4.666666563167128 22.5625 C 4.666666563167128 20.59125006504548 6.229999647584071 19 8.166666252668513 19 C 10.103332857752955 19 11.666666873665742 20.59125006504548 11.666666873665742 22.5625 C 11.666666873665742 24.53374993495452 10.103332857752955 26.125 8.166666252668513 26.125 Z M 33.83333374733149 26.125 C 31.896667142247047 26.125 30.333333126334256 24.53374993495452 30.333333126334256 22.5625 C 30.333333126334256 20.59125006504548 31.896667142247047 19 33.83333374733149 19 C 35.77000035241593 19 37.333332505337026 20.59125006504548 37.333332505337026 22.5625 C 37.333332505337026 24.53374993495452 35.77000035241593 26.125 33.83333374733149 26.125 Z M 4.666666563167128 14.25 L 7.629999826120775 5.177499795571352 C 7.956666482049364 4.227499772340824 8.843332196390906 3.5625 9.846665581991505 3.5625 L 32.1533325550168 3.5625 C 33.1566659406174 3.5625 34.04333165495894 4.227499772340824 34.36999831088753 5.177499795571352 L 37.333332505337026 14.25 L 4.666666563167128 14.25 Z" fill="rgb(255,255,255)"/>
        </svg>